<svg xmlns="http://www.w3.org/2000/svg" width="17" height="17" viewBox="0 0 29.839 27.577">
  <g id="calendar" transform="translate(-6.4 -10.8)">
    <g id="Group_1" data-name="Group 1" transform="translate(6.4 10.8)">
      <path id="Path_1" data-name="Path 1" d="M7.454,38.377H35.185a1.042,1.042,0,0,0,1.054-1.054V13.807a1.042,1.042,0,0,0-1.054-1.054H29.968v-.9a1.054,1.054,0,1,0-2.107,0v.9h-12.9v-.9a1.054,1.054,0,0,0-2.107,0v.9h-5.4A1.042,1.042,0,0,0,6.4,13.807V37.349a1.053,1.053,0,0,0,1.054,1.028ZM8.507,14.861h4.343v.565a1.054,1.054,0,1,0,2.107,0v-.565h12.9v.565a1.054,1.054,0,1,0,2.107,0v-.565h4.189v2.724H8.507V14.861Zm0,4.832H34.131V36.3H8.507v-16.6Z" transform="translate(-6.4 -10.8)"/>
      <path id="Path_2" data-name="Path 2" d="M47.117,64.2H31.954a1.054,1.054,0,1,0,0,2.107H47.117a1.054,1.054,0,1,0,0-2.107Z" transform="translate(-24.603 -50.476)"/>
      <path id="Path_3" data-name="Path 3" d="M39.536,84H31.954a1.054,1.054,0,1,0,0,2.107h7.582a1.054,1.054,0,1,0,0-2.107Z" transform="translate(-24.603 -65.187)"/>
    </g>
  </g>
</svg>
