<svg xmlns="http://www.w3.org/2000/svg" width="11.385" height="21.059" viewBox="0 0 11.385 21.059">
  <g id="facebook-logo" transform="translate(-22.077)">
    <path id="Path_10" data-name="Path 10" d="M33.034,0,30.3,0a4.8,4.8,0,0,0-5.051,5.183v2.39H22.506a.429.429,0,0,0-.429.43v3.462a.429.429,0,0,0,.429.429h2.746v8.736a.429.429,0,0,0,.429.429h3.582a.429.429,0,0,0,.429-.429V11.893H32.9a.429.429,0,0,0,.429-.429V8a.43.43,0,0,0-.43-.43H29.693V5.546c0-.974.232-1.468,1.5-1.468h1.84a.429.429,0,0,0,.429-.429V.434A.43.43,0,0,0,33.034,0Z"/>
  </g>
</svg>
