<svg xmlns="http://www.w3.org/2000/svg" width="17" height="17" viewBox="0 0 27.257 19.377">
  <g id="mail" transform="translate(0 -4.482)">
    <path id="Path_6" data-name="Path 6" d="M25.059,23.859H2.2a2.2,2.2,0,0,1-2.2-2.2V6.679a2.2,2.2,0,0,1,2.2-2.2H25.059a2.2,2.2,0,0,1,2.2,2.2V21.662A2.2,2.2,0,0,1,25.059,23.859ZM2.2,5.361A1.32,1.32,0,0,0,.879,6.679V21.662A1.32,1.32,0,0,0,2.2,22.98H25.059a1.32,1.32,0,0,0,1.318-1.318V6.679a1.32,1.32,0,0,0-1.318-1.318Z"/>
    <path id="Path_7" data-name="Path 7" d="M13.715,16.483A2.458,2.458,0,0,1,12.1,15.9L.87,6.113a.44.44,0,0,1,.578-.663l11.231,9.788a1.647,1.647,0,0,0,2.072,0L25.98,5.451a.44.44,0,0,1,.578.663L15.329,15.9A2.454,2.454,0,0,1,13.715,16.483Z" transform="translate(-0.087 -0.104)"/>
  </g>
</svg>
