<svg xmlns="http://www.w3.org/2000/svg" width="17" height="17" viewBox="0 0 15.382 23.469">
  <g id="place-localizer" transform="translate(-84.424)">
    <path id="Path_4" data-name="Path 4" d="M92.115,0a7.7,7.7,0,0,0-7.691,7.686c0,4.073,6.99,15.094,7.287,15.562a.479.479,0,0,0,.808,0c.3-.467,7.287-11.489,7.287-15.562A7.7,7.7,0,0,0,92.115,0Zm0,22.086c-.633-1.023-1.916-3.141-3.187-5.488-2.32-4.283-3.546-7.364-3.546-8.912a6.733,6.733,0,0,1,13.466,0c0,1.547-1.226,4.629-3.546,8.912C94.031,18.945,92.748,21.063,92.115,22.086Z"/>
    <path id="Path_5" data-name="Path 5" d="M172.678,76.071a3.541,3.541,0,1,0,3.638,3.539A3.594,3.594,0,0,0,172.678,76.071Zm0,6.12a2.583,2.583,0,1,1,2.68-2.581A2.635,2.635,0,0,1,172.678,82.191Z" transform="translate(-80.563 -72.427)"/>
  </g>
</svg>
