<svg id="skype" xmlns="http://www.w3.org/2000/svg" width="10" height="10" viewBox="0 0 19.591 19.591">
  <g id="Group_3" data-name="Group 3" transform="translate(0 0)">
    <g id="Group_2" data-name="Group 2">
      <path id="Path_8" data-name="Path 8" d="M19,11.493a9.591,9.591,0,0,0,.163-1.665A9.323,9.323,0,0,0,9.861.522,9.591,9.591,0,0,0,8.2.686,5.447,5.447,0,0,0,5.518,0,5.529,5.529,0,0,0,.686,8.2,9.591,9.591,0,0,0,.522,9.861a9.323,9.323,0,0,0,9.306,9.306A9.591,9.591,0,0,0,11.493,19a5.506,5.506,0,0,0,2.677.588,5.366,5.366,0,0,0,5.42-5.42A5.507,5.507,0,0,0,19,11.493Zm-4.832,7.445a4.941,4.941,0,0,1-2.449-.555l-.1-.065-.131.033a9.591,9.591,0,0,1-1.665.163A8.668,8.668,0,0,1,1.175,9.861,9.591,9.591,0,0,1,1.339,8.2l.033-.131-.065-.1A5,5,0,0,1,.653,5.518,4.877,4.877,0,0,1,5.518.653a5,5,0,0,1,2.449.653l.1.065L8.2,1.339a9.591,9.591,0,0,1,1.665-.163,8.668,8.668,0,0,1,8.653,8.653,9.591,9.591,0,0,1-.163,1.665l-.033.131.065.1a4.941,4.941,0,0,1,.555,2.449A4.711,4.711,0,0,1,14.171,18.938Z" transform="translate(0 0)"/>
      <path id="Path_9" data-name="Path 9" d="M118.491,93.578c-2.449-.49-2.808-1.11-2.841-1.273a.551.551,0,0,1,.261-.555,3.17,3.17,0,0,1,2.318-.49,1.483,1.483,0,0,1,1.012.62c.555,1.077,1.143,1.926,2.351,1.633a1.34,1.34,0,0,0,.882-.751,2.163,2.163,0,0,0-.065-1.8,5.046,5.046,0,0,0-4.473-2.22c-2.612,0-5.616.947-5.616,3.624,0,2.122,1.861,3.624,5.094,4.081,1.633.229,2.155.751,2.318,1.045a.739.739,0,0,1,.033.588,2.352,2.352,0,0,1-2.514,1.077,2.65,2.65,0,0,1-2.188-1.861,1.5,1.5,0,0,0-1.6-.914,1.639,1.639,0,0,0-1.078.686,1.859,1.859,0,0,0-.1,1.7c.359,1.11,1.567,2.939,5.583,2.939,3.363,0,5.388-2.122,5.42-4.081C123.291,95.472,121.822,94.231,118.491,93.578Zm-.653,7.477c-2.677,0-4.441-.882-4.963-2.482a1.239,1.239,0,0,1,.033-1.143.964.964,0,0,1,.62-.392h.1c.2,0,.686.033.751.424a3.335,3.335,0,0,0,2.743,2.318,2.993,2.993,0,0,0,3.2-1.5,1.349,1.349,0,0,0-.065-1.175c-.261-.49-.98-1.11-2.775-1.371-1.7-.261-4.539-1.012-4.539-3.428,0-2.188,2.677-2.971,4.963-2.971a4.329,4.329,0,0,1,3.886,1.861,1.634,1.634,0,0,1,.033,1.241.606.606,0,0,1-.457.392c-.588.131-.947,0-1.633-1.306a2.007,2.007,0,0,0-1.469-.947,3.813,3.813,0,0,0-2.873.653,1.242,1.242,0,0,0-.457,1.208c.229.784,1.306,1.339,3.363,1.731,3.755.751,4.277,2.122,4.277,3.4C122.573,99.26,120.81,101.056,117.838,101.056Z" transform="translate(-107.847 -85.35)"/>
    </g>
  </g>
</svg>
