<svg xmlns="http://www.w3.org/2000/svg" width="21.894" height="17.789" viewBox="0 0 21.894 17.789">
  <g id="twitter" transform="translate(0 -48)">
    <g id="Group_4" data-name="Group 4" transform="translate(0 48)">
      <path id="Path_11" data-name="Path 11" d="M21.894,50.106a9.358,9.358,0,0,1-2.586.709,4.463,4.463,0,0,0,1.975-2.481,8.97,8.97,0,0,1-2.846,1.086,4.488,4.488,0,0,0-7.764,3.069,4.622,4.622,0,0,0,.1,1.024,12.7,12.7,0,0,1-9.251-4.695,4.49,4.49,0,0,0,1.379,6,4.433,4.433,0,0,1-2.028-.553v.049a4.509,4.509,0,0,0,3.6,4.41,4.48,4.48,0,0,1-1.177.148,3.969,3.969,0,0,1-.85-.077,4.531,4.531,0,0,0,4.194,3.127,9.019,9.019,0,0,1-5.565,1.914A8.407,8.407,0,0,1,0,63.774a12.636,12.636,0,0,0,6.886,2.014A12.687,12.687,0,0,0,19.66,53.016c0-.2-.007-.39-.016-.58A8.954,8.954,0,0,0,21.894,50.106Z" transform="translate(0 -48)"/>
    </g>
  </g>
</svg>
